<?xml version="1.0" encoding="iso-8859-1"?>
<!-- Generator: Adobe Illustrator 19.0.0, SVG Export Plug-In . SVG Version: 6.00 Build 0)  -->
<svg version="1.1" id="Layer_1" xmlns="http://www.w3.org/2000/svg" xmlns:xlink="http://www.w3.org/1999/xlink" x="0px" y="0px"
	 viewBox="0 0 512 512" style="enable-background:new 0 0 512 512;" xml:space="preserve">
<rect x="115.313" y="109.386" style="fill:#E8E8E8;" width="281.376" height="392.414"/>
<rect x="155.742" y="10.199" style="fill:#F07057;" width="100.258" height="61.45"/>
<rect x="256.001" y="10.199" style="fill:#84B3D2;" width="100.258" height="61.45"/>
<path d="M396.689,99.183H115.312c-5.633,0-10.199,4.566-10.199,10.199v392.418c0,5.633,4.566,10.199,10.199,10.199h281.377
	c5.632,0,10.199-4.566,10.199-10.199V109.382C406.889,103.749,402.321,99.183,396.689,99.183z M125.511,119.582h120.29v372.02
	h-120.29V119.582z M386.49,491.602H266.2v-372.02h120.289v372.02H386.49z"/>
<path d="M155.74,0c-5.633,0-10.199,4.566-10.199,10.199v61.45c0,5.633,4.566,10.199,10.199,10.199h200.521
	c5.632,0,10.199-4.566,10.199-10.199v-61.45C366.461,4.566,361.894,0,356.262,0H155.74z M346.063,61.45H266.2V20.398h79.863V61.45z
	 M165.94,20.398h79.862V61.45h-79.863V20.398H165.94z"/>
<path d="M200.275,30.613l-6.199,6.199c-3.983,3.983-3.983,10.441,0,14.424c1.992,1.992,4.602,2.987,7.212,2.987
	c2.61,0,5.221-0.996,7.212-2.987l6.199-6.199c3.983-3.983,3.983-10.441,0-14.424C210.716,26.629,204.258,26.63,200.275,30.613z"/>
<path d="M303.501,51.236c1.992,1.992,4.602,2.987,7.212,2.987s5.22-0.995,7.212-2.987c3.983-3.983,3.983-10.441,0-14.425
	l-6.199-6.199c-3.984-3.983-10.44-3.983-14.425,0c-3.983,3.983-3.983,10.441,0,14.425L303.501,51.236z"/>
<path d="M364.886,320.103c5.632,0,10.199-4.566,10.199-10.199v-6.468c0-5.633-4.567-10.199-10.199-10.199
	c-5.632,0-10.199,4.566-10.199,10.199v6.468C354.687,315.537,359.254,320.103,364.886,320.103z"/>
<path d="M364.886,479.658c5.632,0,10.199-4.566,10.199-10.199V344.402c0-5.633-4.567-10.199-10.199-10.199
	c-5.632,0-10.199,4.566-10.199,10.199v125.058C354.687,475.092,359.254,479.658,364.886,479.658z"/>
<g>
</g>
<g>
</g>
<g>
</g>
<g>
</g>
<g>
</g>
<g>
</g>
<g>
</g>
<g>
</g>
<g>
</g>
<g>
</g>
<g>
</g>
<g>
</g>
<g>
</g>
<g>
</g>
<g>
</g>
</svg>
