<?xml version="1.0" encoding="iso-8859-1"?>
<!-- Generator: Adobe Illustrator 19.0.0, SVG Export Plug-In . SVG Version: 6.00 Build 0)  -->
<svg version="1.1" id="Layer_1" xmlns="http://www.w3.org/2000/svg" xmlns:xlink="http://www.w3.org/1999/xlink" x="0px" y="0px"
	 viewBox="0 0 512 512" style="enable-background:new 0 0 512 512;" xml:space="preserve">
<g>
	<g>
		<g>
			<rect x="379.731" y="213.333" width="34.133" height="25.6"/>
			<rect x="379.731" y="384" width="34.133" height="25.6"/>
			<rect x="379.731" y="341.333" width="34.133" height="25.6"/>
			<rect x="379.731" y="298.667" width="34.133" height="25.6"/>
			<rect x="379.731" y="256" width="34.133" height="25.6"/>
			<rect x="379.731" y="469.333" width="34.133" height="42.667"/>
			<rect x="379.731" y="170.667" width="34.133" height="25.6"/>
			<path d="M452.815,0H340.781c-25.574,0-46.379,20.796-46.379,46.379v21.888H191.601c-9.745-22.34-21.47-43.921-35.166-64.469
				c-3.174-4.745-11.034-4.745-14.199,0c-45.602,68.395-69.7,147.994-69.7,230.204v11.452L16.13,358.246
				c-3.84,7.697-3.985,16.589-0.393,24.397c3.593,7.817,10.436,13.5,18.782,15.582l38.016,9.498v1.877
				c0,4.719,3.814,8.533,8.533,8.533h17.775c-2.039,12.8,0.768,26.103,8.226,37.291l35.166,52.779
				c1.579,2.372,4.241,3.797,7.091,3.797h0.009c2.85,0,5.513-1.425,7.1-3.789l35.157-52.659
				c7.475-11.221,10.283-24.567,8.218-37.419h17.792c4.71,0,8.533-3.814,8.533-8.533v-1.877l38.818-9.694
				c8.141-2.039,14.831-7.578,18.338-15.198c3.507-7.629,3.371-16.316-0.384-23.834l-56.772-113.545v-11.452
				c0-39.083-5.513-77.56-16.128-114.534h84.395V166.4c0,11.767,9.566,21.333,21.333,21.333c2.347,0,4.267,1.92,4.267,4.267v311.467
				c0,4.719,3.814,8.533,8.533,8.533h34.133V170.667c-4.719,0-8.533-3.814-8.533-8.533v-76.8c0-23.526,19.14-42.667,42.667-42.667
				c23.518,0,42.667,19.14,42.667,42.667v76.8c0,4.719-3.823,8.533-8.533,8.533V512h34.133c4.71,0,8.533-3.814,8.533-8.533V192
				c0-2.347,1.911-4.267,4.267-4.267c11.759,0,21.333-9.566,21.333-21.333V46.379C499.202,20.796,478.389,0,452.815,0z
				 M72.535,307.2v34.133v34.133v14.677l-33.869-8.465c-3.302-0.828-5.999-3.081-7.424-6.161c-1.417-3.081-1.365-6.605,0.154-9.634
				l41.139-82.27V307.2z M226.135,375.467v-34.133V307.2v-23.586l41.506,83.021c1.425,2.859,1.485,6.161,0.145,9.054
				c-1.331,2.901-3.874,5.001-6.963,5.777l-34.688,8.67V375.467z M106.669,181.214c0-15.223,12.39-27.614,27.614-27.614h30.097
				c15.224,0,27.622,12.39,27.622,27.614v4.506c0,15.223-12.399,27.614-27.622,27.614h-30.097c-15.223,0-27.614-12.39-27.614-27.614
				V181.214z M89.602,264.533h17.067c4.71,0,8.533,3.814,8.533,8.533c0,4.719-3.823,8.533-8.533,8.533H89.602V264.533z
				 M89.602,298.667h34.133c4.71,0,8.533,3.814,8.533,8.533s-3.823,8.533-8.533,8.533H89.602V298.667z M89.602,332.8h17.067
				c4.71,0,8.533,3.814,8.533,8.533c0,4.719-3.823,8.533-8.533,8.533H89.602V332.8z M89.602,384v-17.067h34.133
				c4.71,0,8.533,3.814,8.533,8.533S128.446,384,123.735,384H89.602z M177.393,446.071l-28.049,42.018l-28.075-42.129
				c-5.564-8.354-7.33-18.423-5.06-27.827h66.236C184.74,427.58,182.974,437.7,177.393,446.071z M209.069,384h-34.133
				c-4.719,0-8.533-3.814-8.533-8.533s3.814-8.533,8.533-8.533h34.133V384z M209.069,349.867h-17.067
				c-4.719,0-8.533-3.814-8.533-8.533c0-4.719,3.814-8.533,8.533-8.533h17.067V349.867z M209.069,315.733h-34.133
				c-4.719,0-8.533-3.814-8.533-8.533s3.814-8.533,8.533-8.533h34.133V315.733z M209.069,281.6h-17.067
				c-4.719,0-8.533-3.814-8.533-8.533c0-4.719,3.814-8.533,8.533-8.533h17.067V281.6z M294.402,102.4h-89.677
				c-1.911-5.726-3.917-11.426-6.084-17.067h95.761V102.4z"/>
			<path d="M396.798,59.733c-14.114,0-25.6,11.486-25.6,25.6V153.6h51.2V85.333C422.398,71.219,410.912,59.733,396.798,59.733z"/>
			<rect x="379.731" y="426.667" width="34.133" height="25.6"/>
			<circle cx="55.465" cy="494.933" r="8.533"/>
			<circle cx="21.331" cy="460.8" r="8.533"/>
			<circle cx="72.531" cy="460.8" r="8.533"/>
			<circle cx="243.198" cy="494.933" r="8.533"/>
			<circle cx="277.331" cy="460.8" r="8.533"/>
			<circle cx="226.131" cy="460.8" r="8.533"/>
			<path d="M134.281,196.267h30.097c5.82,0,10.556-4.736,10.556-10.547v-4.506c0-5.811-4.736-10.547-10.556-10.547h-30.097
				c-5.82,0-10.547,4.736-10.547,10.547v4.506C123.734,191.531,128.461,196.267,134.281,196.267z"/>
		</g>
	</g>
</g>
<g>
</g>
<g>
</g>
<g>
</g>
<g>
</g>
<g>
</g>
<g>
</g>
<g>
</g>
<g>
</g>
<g>
</g>
<g>
</g>
<g>
</g>
<g>
</g>
<g>
</g>
<g>
</g>
<g>
</g>
</svg>
