<?xml version="1.0" encoding="iso-8859-1"?>
<!-- Generator: Adobe Illustrator 19.0.0, SVG Export Plug-In . SVG Version: 6.00 Build 0)  -->
<svg version="1.1" id="Layer_1" xmlns="http://www.w3.org/2000/svg" xmlns:xlink="http://www.w3.org/1999/xlink" x="0px" y="0px"
	 viewBox="0 0 512 512" style="enable-background:new 0 0 512 512;" xml:space="preserve">
<circle style="fill:#71E2EF;" cx="256" cy="256" r="256"/>
<path style="fill:#38C6D9;" d="M269.846,511.624c130.36-6.949,234.829-111.418,241.778-241.778L384,142.222l-55.312,68.665
	l-43.956-43.956l-7.952,10.292l-35.002-35l-31.747,90.217l13.588,13.588L128,369.778L269.846,511.624z"/>
<rect x="128" y="142.222" style="fill:#386895;" width="113.778" height="227.556"/>
<rect x="270.222" y="142.222" style="fill:#273B7A;" width="113.778" height="227.556"/>
<g>
	<path style="fill:#FFEDB5;" d="M230.602,250.515c-3.027-3.031-7.942-3.031-10.969,0l-26.986,26.983v-78.386
		c0-4.284-3.474-7.758-7.758-7.758s-7.758,3.474-7.758,7.758v78.386l-26.984-26.983c-3.031-3.031-7.942-3.031-10.969,0
		c-3.031,3.029-3.031,7.94,0,10.969l40.227,40.226c1.514,1.515,3.5,2.272,5.485,2.272c1.986,0,3.972-0.757,5.485-2.272
		l40.227-40.226C233.631,258.457,233.631,253.543,230.602,250.515z"/>
	<path style="fill:#FFEDB5;" d="M372.824,233.853l-40.227-40.227c-3.027-3.031-7.942-3.031-10.969,0L281.4,233.853
		c-3.031,3.029-3.031,7.94,0,10.969c3.027,3.031,7.942,3.031,10.969,0l26.984-26.984v78.386c0,4.284,3.474,7.758,7.758,7.758
		c4.284,0,7.758-3.474,7.758-7.758v-78.386l26.984,26.984c1.514,1.515,3.5,2.272,5.485,2.272c1.986,0,3.972-0.757,5.486-2.272
		C375.853,241.795,375.853,236.882,372.824,233.853z"/>
</g>
<g>
</g>
<g>
</g>
<g>
</g>
<g>
</g>
<g>
</g>
<g>
</g>
<g>
</g>
<g>
</g>
<g>
</g>
<g>
</g>
<g>
</g>
<g>
</g>
<g>
</g>
<g>
</g>
<g>
</g>
</svg>
