<?xml version="1.0" encoding="iso-8859-1"?>
<!-- Generator: Adobe Illustrator 19.0.0, SVG Export Plug-In . SVG Version: 6.00 Build 0)  -->
<svg version="1.1" id="Layer_1" xmlns="http://www.w3.org/2000/svg" xmlns:xlink="http://www.w3.org/1999/xlink" x="0px" y="0px"
	 viewBox="0 0 512 512" style="enable-background:new 0 0 512 512;" xml:space="preserve">
<g transform="translate(1 1)">
	<g>
		<polygon style="fill:#FD9808;" points="297.667,383 212.333,383 229.4,348.867 280.6,348.867 		"/>
		<polygon style="fill:#FD9808;" points="323.267,314.733 280.6,314.733 280.6,331.8 280.6,348.867 340.333,348.867 		"/>
		<polygon style="fill:#FD9808;" points="186.733,314.733 169.667,348.867 229.4,348.867 229.4,331.8 229.4,314.733 		"/>
	</g>
	<g>
		<polygon style="fill:#FFDD09;" points="229.4,348.867 280.6,348.867 280.6,169.667 229.4,169.667 		"/>
		<path style="fill:#FFDD09;" d="M229.4,232.813c-2.56-4.267-5.973-7.68-8.533-11.947c-16.213,22.187-34.133,49.493-34.133,76.8
			v17.067H229.4v-17.067V232.813z"/>
		<path style="fill:#FFDD09;" d="M280.6,232.813c2.56-4.267,5.973-7.68,8.533-11.947c16.213,22.187,34.133,49.493,34.133,76.8
			v17.067H280.6v-17.067V232.813z"/>
		<path style="fill:#FFDD09;" d="M284.867,169.667h-59.733c-6.827,0-12.8-5.973-12.8-12.8V75.8h85.333v81.067
			C297.667,163.693,291.693,169.667,284.867,169.667"/>
		<path style="fill:#FFDD09;" d="M255,7.533c0,0-42.667,4.267-42.667,68.267h85.333C297.667,11.8,255,7.533,255,7.533"/>
		<path style="fill:#FFDD09;" d="M451.267,383c-28.16,0-51.2,23.04-51.2,51.2c0-18.773-5.12-42.667-34.133-42.667
			c-18.773,0-34.133,15.36-34.133,34.133S314.733,459.8,293.4,459.8c-21.333,0-38.4-15.36-38.4-34.133
			c0,18.773-17.067,34.133-38.4,34.133s-38.4-15.36-38.4-34.133s-15.36-34.133-34.133-34.133c-24.747,0-34.133,23.893-34.133,42.667
			c0-28.16-23.04-51.2-51.2-51.2s-51.2,23.04-51.2,51.2v68.267h494.933V434.2C502.467,406.04,479.427,383,451.267,383"/>
	</g>
	<path d="M284.867,178.2h-59.733c-11.947,0-21.333-9.387-21.333-21.333v-89.6h102.4v89.6C306.2,168.813,296.813,178.2,284.867,178.2
		z M220.867,84.333v72.533c0,2.56,1.707,4.267,4.267,4.267h59.733c2.56,0,4.267-1.707,4.267-4.267V84.333H220.867z"/>
	<path d="M289.133,357.4h-68.267V161.133h68.267V357.4z M237.933,340.333h34.133V178.2h-34.133V340.333z"/>
	<path d="M306.2,84.333H203.8V75.8C203.8,4.973,253.293-1,254.147-1H255h0.853c0.853,0,50.347,5.973,50.347,76.8V84.333z
		 M220.867,67.267h68.267C285.72,24.6,260.973,16.92,255,16.067C249.88,16.92,224.28,24.6,220.867,67.267z"/>
	<path d="M237.933,323.267H178.2v-25.6c0-29.867,17.92-58.027,35.84-81.92l6.827-9.387l6.827,9.387
		c2.56,4.267,5.973,7.68,8.533,11.947l1.707,2.56V323.267z M195.267,306.2h25.6v-70.827l0,0c-13.653,18.773-25.6,40.96-25.6,62.293
		V306.2z"/>
	<path d="M331.8,323.267h-59.733v-93.013l1.707-2.56c2.56-4.267,5.973-8.533,8.533-11.947l6.827-9.387l6.827,9.387
		c17.92,23.893,35.84,52.053,35.84,81.92V323.267z M289.133,306.2h25.6v-8.533c0-21.333-11.947-42.667-25.6-62.293l0,0V306.2z"/>
	<path d="M297.667,391.533h-85.333c-2.56,0-5.973-1.707-7.68-4.267c-1.707-2.56-1.707-5.973,0-8.533L221.72,344.6
		c1.707-2.56,4.267-5.12,7.68-5.12h51.2c3.413,0,5.973,1.707,7.68,5.12l17.067,34.133c1.707,2.56,0.853,5.973,0,8.533
		C304.493,389.827,300.227,391.533,297.667,391.533z M225.987,374.467h58.027L275.48,357.4h-40.96L225.987,374.467z"/>
	<path d="M340.333,357.4H280.6c-5.12,0-8.533-3.413-8.533-8.533v-34.133c0-5.12,3.413-8.533,8.533-8.533h42.667
		c3.413,0,5.973,1.707,7.68,5.12l17.067,34.133c1.707,2.56,0.853,5.973,0,8.533S342.893,357.4,340.333,357.4z M289.133,340.333
		h37.547l-8.533-17.067h-29.013V340.333z"/>
	<path d="M229.4,357.4h-59.733c-2.56,0-5.973-1.707-7.68-4.267c-1.707-2.56-1.707-5.973,0-8.533l17.067-34.133
		c1.707-2.56,4.267-5.12,7.68-5.12H229.4c5.12,0,8.533,3.413,8.533,8.533v34.133C237.933,353.987,234.52,357.4,229.4,357.4z
		 M183.32,340.333h37.547v-17.067h-29.013L183.32,340.333z"/>
	<path d="M255,144.067c-5.12,0-8.533-3.413-8.533-8.533v-25.6c0-5.12,3.413-8.533,8.533-8.533s8.533,3.413,8.533,8.533v25.6
		C263.533,140.653,260.12,144.067,255,144.067z"/>
	<path d="M144.067,391.533H127c0-18.773-15.36-34.133-34.133-34.133s-34.133,15.36-34.133,34.133H41.667
		c0-28.16,23.04-51.2,51.2-51.2S144.067,363.373,144.067,391.533z"/>
	<path d="M468.333,391.533h-17.067c0-18.773-15.36-34.133-34.133-34.133S383,372.76,383,391.533h-17.067
		c0-28.16,23.04-51.2,51.2-51.2C445.293,340.333,468.333,363.373,468.333,391.533z"/>
	<path d="M502.467,511H7.533C2.413,511-1,507.587-1,502.467V434.2c0-33.28,26.453-59.733,59.733-59.733
		c21.333,0,40.107,11.093,50.347,28.16C116.76,391.533,127.853,383,144.067,383c23.893,0,42.667,18.773,42.667,42.667
		c0,14.507,13.653,25.6,29.867,25.6s29.867-11.093,29.867-25.6c0-5.12,3.413-8.533,8.533-8.533s8.533,3.413,8.533,8.533
		c0,14.507,13.653,25.6,29.867,25.6s29.867-11.093,29.867-25.6c0-23.893,18.773-42.667,42.667-42.667
		c11.093,0,26.453,3.413,34.987,18.773c11.093-16.213,29.013-27.307,50.347-27.307c33.28,0,59.733,26.453,59.733,59.733v68.267
		C511,507.587,507.587,511,502.467,511z M16.067,493.933h477.867V434.2c0-23.893-18.773-42.667-42.667-42.667
		c-23.893,0-42.667,18.773-42.667,42.667c0,5.12-3.413,8.533-8.533,8.533s-8.533-3.413-8.533-8.533
		c0-29.867-13.653-34.133-25.6-34.133c-14.507,0-25.6,11.093-25.6,25.6c0,23.893-21.333,42.667-46.933,42.667
		c-16.213,0-29.867-6.827-38.4-17.92c-8.533,11.093-22.187,17.92-38.4,17.92c-25.6,0-46.933-18.773-46.933-42.667
		c0-14.507-11.093-25.6-25.6-25.6c-20.48,0-25.6,21.333-25.6,34.133c0,5.12-3.413,8.533-8.533,8.533s-8.533-3.413-8.533-8.533
		c0-23.893-18.773-42.667-42.667-42.667S16.067,410.307,16.067,434.2V493.933z"/>
	<path d="M400.067,212.333c0,5.12-3.413,8.533-8.533,8.533S383,217.453,383,212.333c0-5.12,3.413-8.533,8.533-8.533
		S400.067,207.213,400.067,212.333"/>
	<path d="M493.933,84.333c0,5.12-3.413,8.533-8.533,8.533s-8.533-3.413-8.533-8.533S480.28,75.8,485.4,75.8
		S493.933,79.213,493.933,84.333"/>
	<path d="M67.267,272.067c0,5.12-3.413,8.533-8.533,8.533s-8.533-3.413-8.533-8.533s3.413-8.533,8.533-8.533
		S67.267,266.947,67.267,272.067"/>
	<path d="M118.467,135.533c0,5.12-3.413,8.533-8.533,8.533s-8.533-3.413-8.533-8.533s3.413-8.533,8.533-8.533
		S118.467,130.413,118.467,135.533"/>
	<path d="M41.667,84.333c-5.12,0-8.533-3.413-8.533-8.533c0-14.507-11.093-25.6-25.6-25.6C2.413,50.2-1,46.787-1,41.667
		s3.413-8.533,8.533-8.533c14.507,0,25.6-11.093,25.6-25.6c0-5.12,3.413-8.533,8.533-8.533S50.2,2.413,50.2,7.533
		c0,14.507,11.093,25.6,25.6,25.6c5.12,0,8.533,3.413,8.533,8.533S80.92,50.2,75.8,50.2c-14.507,0-25.6,11.093-25.6,25.6
		C50.2,80.92,46.787,84.333,41.667,84.333z M33.133,41.667c3.413,2.56,5.973,5.12,8.533,8.533c2.56-3.413,5.12-5.973,8.533-8.533
		c-3.413-2.56-5.973-5.12-8.533-8.533C39.107,36.547,36.547,39.107,33.133,41.667z"/>
</g>
<g>
</g>
<g>
</g>
<g>
</g>
<g>
</g>
<g>
</g>
<g>
</g>
<g>
</g>
<g>
</g>
<g>
</g>
<g>
</g>
<g>
</g>
<g>
</g>
<g>
</g>
<g>
</g>
<g>
</g>
</svg>
