<?xml version="1.0" encoding="iso-8859-1"?>
<!-- Generator: Adobe Illustrator 19.0.0, SVG Export Plug-In . SVG Version: 6.00 Build 0)  -->
<svg version="1.1" id="Layer_1" xmlns="http://www.w3.org/2000/svg" xmlns:xlink="http://www.w3.org/1999/xlink" x="0px" y="0px"
	 viewBox="0 0 512 512" style="enable-background:new 0 0 512 512;" xml:space="preserve">
<g>
	<g>
		<path d="M396.689,99.183H115.312c-5.633,0-10.199,4.566-10.199,10.199v392.418c0,5.633,4.566,10.199,10.199,10.199h281.377
			c5.632,0,10.199-4.566,10.199-10.199V109.382C406.889,103.749,402.321,99.183,396.689,99.183z M245.801,491.602h-120.29v-372.02
			h120.29V491.602z M266.2,491.602v-372.02h120.289v372.02H266.2z"/>
	</g>
</g>
<g>
	<g>
		<path d="M356.262,0H155.74c-5.633,0-10.199,4.566-10.199,10.199v61.45c0,5.633,4.566,10.199,10.199,10.199h200.521
			c5.632,0,10.199-4.566,10.199-10.199v-61.45C366.461,4.566,361.894,0,356.262,0z M245.801,61.45h-79.863V20.398h0.001h79.862
			V61.45z M346.063,61.45H266.2V20.398h79.863V61.45z"/>
	</g>
</g>
<g>
	<g>
		<path d="M214.699,30.613c-3.983-3.984-10.441-3.983-14.424,0l-6.199,6.199c-3.983,3.983-3.983,10.441,0,14.424
			c1.992,1.992,4.602,2.987,7.212,2.987s5.221-0.996,7.212-2.987l6.199-6.199C218.682,41.054,218.682,34.596,214.699,30.613z"/>
	</g>
</g>
<g>
	<g>
		<path d="M317.925,36.811l-6.199-6.199c-3.984-3.983-10.44-3.983-14.425,0c-3.983,3.983-3.983,10.441,0,14.425l6.2,6.199
			c1.992,1.992,4.602,2.987,7.212,2.987c2.61,0,5.22-0.995,7.212-2.987C321.908,47.253,321.908,40.795,317.925,36.811z"/>
	</g>
</g>
<g>
	<g>
		<path d="M364.886,293.236c-5.632,0-10.199,4.566-10.199,10.199v6.468c0,5.633,4.567,10.199,10.199,10.199
			s10.199-4.566,10.199-10.199v-6.468C375.085,297.802,370.518,293.236,364.886,293.236z"/>
	</g>
</g>
<g>
	<g>
		<path d="M364.886,334.202c-5.632,0-10.199,4.566-10.199,10.199v125.058c0,5.633,4.567,10.199,10.199,10.199
			s10.199-4.566,10.199-10.199V344.402C375.085,338.769,370.518,334.202,364.886,334.202z"/>
	</g>
</g>
<g>
</g>
<g>
</g>
<g>
</g>
<g>
</g>
<g>
</g>
<g>
</g>
<g>
</g>
<g>
</g>
<g>
</g>
<g>
</g>
<g>
</g>
<g>
</g>
<g>
</g>
<g>
</g>
<g>
</g>
</svg>
