<?xml version="1.0" encoding="iso-8859-1"?>
<!-- Generator: Adobe Illustrator 19.0.0, SVG Export Plug-In . SVG Version: 6.00 Build 0)  -->
<svg version="1.1" id="Layer_1" xmlns="http://www.w3.org/2000/svg" xmlns:xlink="http://www.w3.org/1999/xlink" x="0px" y="0px"
	 viewBox="0 0 512 512" style="enable-background:new 0 0 512 512;" xml:space="preserve">
<rect x="174.545" y="374.479" style="fill:#747D8C;" width="326.876" height="84.628"/>
<polygon style="fill:#EB4E49;" points="84.628,219.856 10.579,332.165 10.579,459.107 174.545,459.107 174.545,219.856 "/>
<g>
	<circle style="fill:#EFEFEF;" cx="405.506" cy="459.107" r="37.025"/>
	<circle style="fill:#EFEFEF;" cx="86.744" cy="459.107" r="37.025"/>
</g>
<path style="fill:#EB4E49;" d="M420.134,344.874c-3.6,0-7.247-0.919-10.586-2.853L233.953,240.292
	c-7.411-4.295-11.503-12.633-10.363-21.122c1.14-8.489,7.286-15.454,15.567-17.641L389.2,161.912L252.193,96.317
	c-10.539-5.046-14.993-17.68-9.947-28.219c5.045-10.537,17.678-14.993,28.218-9.946l188.91,90.442
	c8.001,3.829,12.761,12.243,11.927,21.072c-0.834,8.83-7.087,16.202-15.661,18.466l-156.143,41.229l160.945,90.11
	c10.111,5.857-16.124,4.738-21.981,14.848C434.538,341.091,427.434,344.874,420.134,344.874z"/>
<g>
	<rect x="350.572" y="321.587" style="fill:#FBA026;" width="116.364" height="52.893"/>
	<rect x="212.194" y="34.38" style="fill:#FBA026;" width="52.893" height="79.339"/>
	<circle style="fill:#FBA026;" cx="256.19" cy="221.969" r="37.025"/>
	<circle style="fill:#FBA026;" cx="434.375" cy="163.449" r="37.025"/>
</g>
<polygon style="fill:#EFEFEF;" points="132.231,334.193 132.231,262.171 107.412,262.171 59.925,334.193 "/>
<g>
	<path style="fill:#231F20;" d="M501.421,363.901h-23.907v-42.314c0-5.841-4.736-10.579-10.579-10.579h-0.09
		c-0.352-0.233-0.712-0.464-1.102-0.69c-0.044-0.026-0.089-0.052-0.134-0.077L327.491,232.91l91.936-24.275
		c4.703,1.559,9.725,2.416,14.944,2.416c18.536,0,34.62-10.656,42.478-26.157c2.726-4.201,4.495-9.053,4.984-14.233
		c0.153-1.62,0.176-3.232,0.081-4.825c0.039-0.791,0.06-1.587,0.06-2.389c0-26.248-21.355-47.603-47.603-47.603
		c-4.984,0-9.789,0.773-14.307,2.2L275.671,48.916V34.38c0-5.841-4.736-10.579-10.579-10.579h-42.314v-7.934
		c0-5.841-4.736-10.579-10.579-10.579H22.021c-5.843,0-10.579,4.737-10.579,10.579v103.669c0,5.841,4.736,10.579,10.579,10.579
		H212.2c4.128,0,7.695-2.37,9.437-5.818h43.455c4.044,0,7.556-2.271,9.336-5.607l84.255,40.337L278.84,180.11
		c-6.738-3.659-14.453-5.74-22.645-5.74c-26.248,0-47.603,21.355-47.603,47.603s21.355,47.603,47.603,47.603
		c2.183,0,4.329-0.161,6.434-0.446l79.523,46.072c-1.349,1.776-2.159,3.984-2.159,6.386v42.314H185.124V219.857
		c0-5.841-4.736-10.579-10.579-10.579H84.628c-3.556,0-6.874,1.786-8.832,4.755L1.747,326.342C0.607,328.07,0,330.095,0,332.165
		v126.942c0,5.841,4.736,10.579,10.579,10.579H40.34c4.825,21.172,23.792,37.025,46.404,37.025s41.579-15.853,46.404-37.025h225.958
		c4.825,21.172,23.792,37.025,46.404,37.025s41.579-15.853,46.404-37.025h49.509c5.842,0,10.578-4.737,10.578-10.579v-84.628
		C512,368.638,507.264,363.901,501.421,363.901z M460.818,163.449c0,14.582-11.864,26.446-26.446,26.446
		c-14.582,0-26.446-11.864-26.446-26.446c0-14.582,11.864-26.446,26.446-26.446C448.954,137.002,460.818,148.866,460.818,163.449z
		 M201.621,34.38v22.744h-26.388V26.446h26.388V34.38z M154.076,57.124h-26.387V26.446h26.387V57.124z M106.532,57.124H80.144
		V26.446h26.387v30.678H106.532z M32.6,26.446h26.387v30.678H32.6V26.446z M32.6,78.281h26.387v30.678H32.6V78.281z M80.144,78.281
		h26.387v30.678H80.144V78.281z M127.689,78.281h26.387v30.678h-26.387C127.689,108.959,127.689,78.281,127.689,78.281z
		 M175.233,78.281h26.388v30.678h-26.388V78.281z M254.514,103.14h-31.736V44.959h31.736V103.14z M275.671,95.829V72.373
		l123.46,59.107c-4.751,5.232-8.344,11.527-10.403,18.476L275.671,95.829z M387.783,173.227c1.516,7.231,4.685,13.859,9.083,19.482
		l-93.295,24.634c-0.709-7.309-3.073-14.138-6.718-20.107L387.783,173.227z M256.196,195.527c14.582,0,26.446,11.864,26.446,26.446
		c0,14.582-11.864,26.446-26.446,26.446c-14.582,0-26.446-11.864-26.446-26.446C229.749,207.391,241.612,195.527,256.196,195.527z
		 M299.578,241.53l124.093,69.479h-46.553l-90.517-52.441C292.122,253.972,296.582,248.151,299.578,241.53z M361.15,332.165h95.207
		v31.736H361.15V332.165z M86.744,485.554c-14.582,0-26.446-11.864-26.446-26.446s11.864-26.446,26.446-26.446
		s26.446,11.864,26.446,26.446S101.326,485.554,86.744,485.554z M86.744,411.504c-22.612,0-41.579,15.853-46.404,37.025H21.157
		v-113.19l69.168-104.903h73.642v218.093h-30.819C128.323,427.357,109.355,411.504,86.744,411.504z M405.509,485.554
		c-14.582,0-26.446-11.864-26.446-26.446s11.864-26.446,26.446-26.446s26.446,11.864,26.446,26.446S420.093,485.554,405.509,485.554
		z M490.843,448.529h-38.929c-4.825-21.172-23.792-37.025-46.404-37.025s-41.579,15.853-46.404,37.025H185.124v-21.157h71.072
		c5.843,0,10.579-4.737,10.579-10.579s-4.736-10.579-10.579-10.579h-71.072v-21.157h305.719V448.529z"/>
	<path style="fill:#231F20;" d="M142.81,334.193v-72.022c0-5.841-4.736-10.579-10.579-10.579h-24.819
		c-3.555,0-6.874,1.787-8.832,4.755L51.094,328.37c-2.142,3.249-2.327,7.412-0.482,10.839c1.845,3.426,5.423,5.563,9.314,5.563
		h72.305C138.074,344.772,142.81,340.035,142.81,334.193z M121.653,323.615H79.572l33.537-50.865h8.544V323.615z"/>
	<path style="fill:#231F20;" d="M142.81,378.182c0-5.841-4.736-10.578-10.579-10.578h-8.463c-5.843,0-10.579,4.737-10.579,10.578
		s4.736,10.579,10.579,10.579h8.463C138.074,388.76,142.81,384.023,142.81,378.182z"/>
	<path style="fill:#231F20;" d="M300.706,406.215h-3.174c-5.842,0-10.578,4.737-10.578,10.579s4.736,10.579,10.578,10.579h3.174
		c5.843,0,10.579-4.737,10.579-10.579S306.548,406.215,300.706,406.215z"/>
</g>
<g>
</g>
<g>
</g>
<g>
</g>
<g>
</g>
<g>
</g>
<g>
</g>
<g>
</g>
<g>
</g>
<g>
</g>
<g>
</g>
<g>
</g>
<g>
</g>
<g>
</g>
<g>
</g>
<g>
</g>
</svg>
