<?xml version="1.0" encoding="iso-8859-1"?>
<!-- Generator: Adobe Illustrator 18.0.0, SVG Export Plug-In . SVG Version: 6.00 Build 0)  -->
<!DOCTYPE svg PUBLIC "-//W3C//DTD SVG 1.1//EN" "http://www.w3.org/Graphics/SVG/1.1/DTD/svg11.dtd">
<svg version="1.1" id="Capa_1" xmlns="http://www.w3.org/2000/svg" xmlns:xlink="http://www.w3.org/1999/xlink" x="0px" y="0px"
	 viewBox="0 0 131.762 131.762" style="enable-background:new 0 0 131.762 131.762;" xml:space="preserve">
<g>
	<path style="fill-rule:evenodd;clip-rule:evenodd;fill:#FFDECC;" d="M54.143,78.477C28.191,89.854,20.405,95.919,17.328,98.643
		c-4.742,4.196-7.365,19.838-10.162,33.119h58.715h58.715c-2.797-13.281-5.421-28.923-10.162-33.119
		c-3.077-2.724-10.577-8.633-36.529-20.011L54.143,78.477z"/>
	<path style="fill-rule:evenodd;clip-rule:evenodd;fill:#497194;" d="M54.142,78.477C28.191,89.854,20.405,95.919,17.328,98.643
		c-4.742,4.196-7.365,19.838-10.162,33.119h58.715h58.714c-2.797-13.281-5.42-28.923-10.162-33.119
		c-3.076-2.724-10.576-8.633-36.528-20.011L54.142,78.477z"/>
	<path style="fill-rule:evenodd;clip-rule:evenodd;fill:#FFDECC;" d="M78.482,55.798v28.767c-6.931,8.488-18.271,8.194-25.201,0
		V55.798C53.28,40.265,78.482,40.265,78.482,55.798z"/>
	<path style="fill-rule:evenodd;clip-rule:evenodd;fill:#F7C5AA;" d="M78.482,55.798v19.26c-4.769,3.476-9.364,5.423-12.601,5.423
		c-3.236,0-7.833-1.947-12.601-5.423v-19.26C53.28,40.265,78.482,40.265,78.482,55.798z"/>
	<path style="fill-rule:evenodd;clip-rule:evenodd;fill:#FFDECC;" d="M65.881,4.152c-42.292,0-27.083,51.101-24.32,55.169
		c3.046,4.486,17.487,16.376,24.32,16.376S87.154,63.807,90.2,59.321C92.964,55.253,108.173,4.152,65.881,4.152z"/>
	<path style="fill-rule:evenodd;clip-rule:evenodd;fill:#F7C5AA;" d="M77.145,60.148c-9.915,0.456-19.72-3.195-25.716-8.609
		C51.803,59.744,70.693,66.133,77.145,60.148z"/>
	<path style="fill-rule:evenodd;clip-rule:evenodd;fill:#F7C5AA;" d="M54.035,50.825c-2.067,0.804-3.739,2.437-4.476,4.084
		C49.076,52.666,52.37,49.618,54.035,50.825z"/>
	
		<ellipse transform="matrix(-0.3127 -0.9498 0.9498 -0.3127 4.4022 92.511)" style="fill-rule:evenodd;clip-rule:evenodd;fill:#FFDECC;" cx="35.67" cy="44.663" rx="7.317" ry="4.231"/>
	
		<ellipse transform="matrix(0.3128 -0.9498 0.9498 0.3128 23.5359 121.8553)" style="fill-rule:evenodd;clip-rule:evenodd;fill:#FFDECC;" cx="95.98" cy="44.662" rx="7.316" ry="4.231"/>
	<path style="fill-rule:evenodd;clip-rule:evenodd;fill:#FFC65D;" d="M46.55,21.253c-2.453,13.402-8.597,12.151-8.109,27.879
		c-1.974-12.258-4.921-28.57,3.413-39.315c6.659-8.586,28.715-14.727,42.997-4.426c15.774,3.37,10.842,35.486,8.727,41.557
		c-1.477-9.832-4.784-13.928-8.96-25.488C78.952,25.522,53.812,26.428,46.55,21.253z"/>
	<path style="fill-rule:evenodd;clip-rule:evenodd;fill:#E6E6E6;" d="M65.946,90.821c0,0-17.585,4.198-17.585,5.263
		c0,1.064,6.691,35.679,6.691,35.679h23.874l2.736-35.526L65.946,90.821z"/>
	<polygon style="fill-rule:evenodd;clip-rule:evenodd;fill:#86BCEB;" points="53.28,78.856 53.28,84.565 58.754,131.762 
		49.342,131.762 38.987,110.74 48.871,104.152 36.792,98.504 47.9,81.269 	"/>
	<polygon style="fill-rule:evenodd;clip-rule:evenodd;fill:#86BCEB;" points="78.482,78.886 78.483,84.565 72.954,131.762 
		82.366,131.762 92.72,110.74 82.837,104.152 94.916,98.504 85.044,81.8 	"/>
	<path style="fill-rule:evenodd;clip-rule:evenodd;fill:#FFFFFF;" d="M53.28,75.058l-1.102,4.284l3.083,22.314l10.685-10.835
		L53.28,75.058z"/>
	<path style="fill-rule:evenodd;clip-rule:evenodd;fill:#9D3421;" d="M60.462,96.657l3.052,4.728c1.577,0,3.156,0,4.733,0
		l3.053-4.728l-5.354-5.837L60.462,96.657z"/>
	<polygon style="fill-rule:evenodd;clip-rule:evenodd;fill:#9D3421;" points="63.514,101.385 59.169,131.762 72.593,131.762 
		68.248,101.385 	"/>
	<path style="fill-rule:evenodd;clip-rule:evenodd;fill:#FFFFFF;" d="M78.482,75.058l0.869,4.215l-2.896,22.606L65.946,90.822
		L78.482,75.058z"/>
	<g>
		<path style="fill-rule:evenodd;clip-rule:evenodd;fill:#304D66;" d="M31.094,131.762h2.011c-0.09-8.941-0.09-15.386-0.09-15.386
			S32.124,123.073,31.094,131.762z"/>
		<path style="fill-rule:evenodd;clip-rule:evenodd;fill:#304D66;" d="M100.668,131.762h-2.012c0.09-8.941,0.09-15.386,0.09-15.386
			S99.637,123.073,100.668,131.762z"/>
	</g>
</g>
<g>
</g>
<g>
</g>
<g>
</g>
<g>
</g>
<g>
</g>
<g>
</g>
<g>
</g>
<g>
</g>
<g>
</g>
<g>
</g>
<g>
</g>
<g>
</g>
<g>
</g>
<g>
</g>
<g>
</g>
</svg>
